<?xml version="1.0" encoding="UTF-8"?>
<svg xmlns="http://www.w3.org/2000/svg" xmlns:xlink="http://www.w3.org/1999/xlink" width="19px" height="19px" viewBox="0 0 19 19" version="1.1">
<g id="surface1">
<path style=" stroke:none;fill-rule:nonzero;fill:rgb(0%,0%,0%);fill-opacity:1;" d="M 18.566406 16.464844 L 14.125 12.023438 C 15.132812 10.523438 15.632812 8.648438 15.367188 6.652344 C 14.910156 3.257812 12.128906 0.496094 8.726562 0.0625 C 3.675781 -0.574219 -0.574219 3.675781 0.0625 8.726562 C 0.496094 12.128906 3.257812 14.914062 6.65625 15.367188 C 8.652344 15.632812 10.523438 15.136719 12.023438 14.125 L 16.464844 18.566406 C 17.046875 19.148438 17.984375 19.148438 18.566406 18.566406 C 19.144531 17.988281 19.144531 17.042969 18.566406 16.464844 Z M 2.933594 7.71875 C 2.933594 5.097656 5.066406 2.96875 7.683594 2.96875 C 10.304688 2.96875 12.433594 5.097656 12.433594 7.71875 C 12.433594 10.339844 10.304688 12.46875 7.683594 12.46875 C 5.066406 12.46875 2.933594 10.339844 2.933594 7.71875 Z M 2.933594 7.71875 "/>
</g>
</svg>
