<?xml version="1.0" encoding="UTF-8"?>
<svg xmlns="http://www.w3.org/2000/svg" xmlns:xlink="http://www.w3.org/1999/xlink" width="56px" height="62px" viewBox="0 0 56 62" version="1.1">
<g id="surface1">
<path style=" stroke:none;fill-rule:nonzero;fill:rgb(0%,0%,0%);fill-opacity:1;" d="M 1.601562 1.589844 C 0.199219 2.882812 0 6.957031 0 30.402344 C 0 47.394531 0.398438 58.523438 1 59.714844 C 2 61.402344 3.300781 61.601562 17.300781 61.601562 C 27.898438 61.601562 33 61.207031 33.800781 60.410156 C 35.300781 58.917969 35.5 31.792969 34 31.792969 C 33.398438 31.792969 33 35.074219 33 39.742188 L 33 47.691406 L 2 47.691406 L 2 7.949219 L 33 7.949219 L 33 15.898438 C 33 20.566406 33.398438 23.847656 34 23.847656 C 35.5 23.847656 35.300781 2.683594 33.800781 1.191406 C 33 0.398438 28 0 17.898438 0 C 5.800781 0 2.898438 0.296875 1.601562 1.589844 Z M 32.800781 4.171875 C 33.101562 5.863281 31.898438 5.960938 17.601562 5.960938 C 5.300781 5.960938 2 5.664062 2 4.667969 C 2 3.875 2.300781 2.980469 2.699219 2.582031 C 3.101562 2.285156 9.898438 2.085938 17.898438 2.1875 C 30.898438 2.484375 32.5 2.683594 32.800781 4.171875 Z M 32.800781 54.347656 L 32.5 59.117188 L 2.5 59.117188 L 2.199219 54.347656 L 1.898438 49.679688 L 33.101562 49.679688 Z M 32.800781 54.347656 "/>
<path style=" stroke:none;fill-rule:nonzero;fill:rgb(0%,0%,0%);fill-opacity:1;" d="M 12.5 3.972656 C 12.101562 4.570312 13.199219 4.96875 14.898438 4.96875 C 16.601562 4.96875 18 4.472656 18 3.972656 C 18 3.378906 16.898438 2.980469 15.601562 2.980469 C 14.199219 2.980469 12.800781 3.378906 12.5 3.972656 Z M 12.5 3.972656 "/>
<path style=" stroke:none;fill-rule:nonzero;fill:rgb(0%,0%,0%);fill-opacity:1;" d="M 20 3.972656 C 20 4.472656 20.699219 4.96875 21.601562 4.96875 C 22.398438 4.96875 22.800781 4.472656 22.5 3.972656 C 22.199219 3.378906 21.5 2.980469 20.898438 2.980469 C 20.398438 2.980469 20 3.378906 20 3.972656 Z M 20 3.972656 "/>
<path style=" stroke:none;fill-rule:nonzero;fill:rgb(0%,0%,0%);fill-opacity:1;" d="M 14 52.5625 C 12.800781 54.945312 13.601562 57.332031 16 58.125 C 19.898438 59.316406 22.800781 56.136719 21 52.5625 C 19.601562 50.078125 15.398438 50.078125 14 52.5625 Z M 19.5 54.648438 C 19.5 55.441406 18.699219 56.238281 17.800781 56.4375 C 16.5 56.632812 16 56.136719 16 54.648438 C 16 53.15625 16.5 52.660156 17.800781 52.859375 C 18.699219 53.058594 19.5 53.851562 19.5 54.648438 Z M 19.5 54.648438 "/>
<path style=" stroke:none;fill-rule:nonzero;fill:rgb(0%,0%,0%);fill-opacity:1;" d="M 22 21.363281 L 15.5 27.820312 L 22.199219 34.476562 C 25.898438 38.152344 29.199219 40.835938 29.601562 40.4375 C 30 40.042969 28 37.457031 25.199219 34.777344 C 22.300781 31.992188 20 29.507812 20 29.210938 C 20 29.011719 28.101562 28.8125 38 28.8125 C 49.300781 28.8125 56 28.417969 56 27.820312 C 56 27.222656 49.300781 26.828125 38 26.828125 C 28.101562 26.828125 20 26.429688 20 26.03125 C 20 25.632812 21.699219 23.648438 23.800781 21.757812 C 28.5 17.386719 30.5 14.902344 29.300781 14.902344 C 28.800781 14.902344 25.5 17.785156 22 21.363281 Z M 22 21.363281 "/>
</g>
</svg>
