<?xml version="1.0" encoding="UTF-8"?>
<svg xmlns="http://www.w3.org/2000/svg" xmlns:xlink="http://www.w3.org/1999/xlink" width="15px" height="24px" viewBox="0 0 15 24" version="1.1">
<g id="surface1">
<path style=" stroke:none;fill-rule:nonzero;fill:rgb(0%,0%,0%);fill-opacity:1;" d="M 13.457031 7.109375 C 13.46875 7.328125 13.46875 7.539062 13.46875 7.75 C 13.46875 14.257812 10.375 21.742188 4.722656 21.742188 C 2.980469 21.742188 1.359375 20.9375 0 19.539062 C 0.246094 19.578125 0.484375 19.601562 0.742188 19.601562 C 2.179688 19.601562 3.503906 18.828125 4.558594 17.5 C 3.207031 17.453125 2.074219 16.039062 1.683594 14.085938 C 1.875 14.132812 2.066406 14.164062 2.265625 14.164062 C 2.542969 14.164062 2.816406 14.101562 3.074219 13.992188 C 1.664062 13.539062 0.609375 11.554688 0.609375 9.171875 L 0.609375 9.109375 C 1.019531 9.476562 1.496094 9.703125 2 9.734375 C 1.171875 8.851562 0.628906 7.335938 0.628906 5.640625 C 0.628906 4.71875 0.78125 3.882812 1.046875 3.148438 C 2.558594 6.140625 4.835938 8.085938 7.386719 8.296875 C 7.339844 7.929688 7.308594 7.554688 7.308594 7.171875 C 7.308594 4.460938 8.679688 2.257812 10.382812 2.257812 C 11.269531 2.257812 12.070312 2.851562 12.628906 3.804688 C 13.324219 3.59375 13.992188 3.179688 14.582031 2.617188 C 14.351562 3.765625 13.867188 4.71875 13.230469 5.328125 C 13.847656 5.226562 14.449219 4.953125 15 4.570312 C 14.582031 5.546875 14.058594 6.414062 13.457031 7.109375 Z M 13.457031 7.109375 "/>
</g>
</svg>
